#!OML:ASF H:\GeneralSubjects\Female5\Project 1\Capture day 1\Session 1\Female5.ASF
:FULLY-SPECIFIED
:DEGREES
289
root 7.15483 15.9635 3.36687 -258.057 -60.1749 -106.735
lowerback 23.653 2.22144 -6.36481
upperback -1.31849 2.04732 7.30345
thorax -15.0517 1.7276 11.0015
lowerneck -11.3 -9.62515 -10.4948
upperneck 32.1893 -18.2854 13.5847
head 15.6057 -8.22374 4.03704
rclavicle -2.74633e-014 -9.54166e-015
rhumerus -55.0222 29.4786 -61.0318
rradius 47.4945
rwrist -5.87288
rhand -25.9077 -15.6485
rfingers 7.12502
rthumb 0.634919 -45.6273
lclavicle -2.74633e-014 -9.54166e-015
lhumerus -7.62813 -34.3569 37.1339
lradius 100.365
lwrist -11.5096
lhand -28.4156 19.3233
lfingers 7.12502
lthumb -1.78733 49.2956
rfemur -70.8967 -18.0148 23.9046
rtibia 84.5204
rfoot 323.721 -48.1137
rtoes -16.7344
lfemur -1.74906 -16.3101 -2.86972
ltibia 27.1278
lfoot -26.0466 -3.25312
ltoes -48.6929
290
root 7.17234 15.9026 3.40383 -257.225 -60.262 -108.365
lowerback 24.1971 2.15478 -6.4268
upperback -0.902525 1.90421 7.49537
thorax -14.8322 1.63232 11.2941
lowerneck -10.6628 -9.17144 -9.94418
upperneck 32.0295 -17.7181 13.4282
head 15.1882 -7.98993 4.02846
rclavicle -3.16875e-014 2.8625e-014
rhumerus -55.4211 29.3135 -61.1621
rradius 47.5837
rwrist -6.42761
rhand -25.8269 -15.252
rfingers 7.12502
rthumb 0.712958 -45.2306
lclavicle -3.16875e-014 2.8625e-014
lhumerus -5.36049 -33.8083 36.207
lradius 100.135
lwrist -10.6657
lhand -28.553 19.637
lfingers 7.12502
lthumb -1.92002 49.6081
rfemur -68.7209 -17.9448 21.6969
rtibia 74.0169
rfoot 351.108 -22.8264
rtoes -10.5194
lfemur -0.770656 -15.697 -3.51955
ltibia 27.0932
lfoot -26.1579 -4.23292
ltoes -47.5455
291
root 7.18824 15.8504 3.44577 -256.183 -60.4689 -110.054
lowerback 24.5717 2.16031 -6.9696
upperback -0.683192 1.74076 7.68681
thorax -14.7657 1.58941 11.8893
lowerneck -9.54182 -8.84569 -9.81495
upperneck 32.1481 -17.5939 13.6724
head 14.9827 -8.00149 4.19176
rclavicle -1.88224e-015 4.13472e-014
rhumerus -56.0865 29.1443 -61.3362
rradius 47.2893
rwrist -7.1272
rhand -25.6681 -14.7841
rfingers 7.12502
rthumb 0.866335 -44.7621
lclavicle -1.88224e-015 4.13472e-014
lhumerus -3.52008 -33.4501 36.2291
lradius 99.4745
lwrist -10.3068
lhand -28.6136 19.2884
lfingers 7.12502
lthumb -1.97857 49.259
rfemur -66.0451 -17.4997 19.0292
rtibia 62.9283
rfoot 355.49 -25.7848
rtoes -9.05069
lfemur 0.297782 -15.2261 -4.381
ltibia 26.6481
lfoot -26.4141 -4.39944
ltoes -47.012
292
root 7.20303 15.8132 3.48718 -254.824 -61.0778 -111.813
lowerback 24.7567 2.17625 -7.87989
upperback -0.474155 1.47601 7.72014
thorax -14.5782 1.51699 12.5532
lowerneck -9.37796 -8.53294 -9.50424
upperneck 32.8154 -17.4992 13.6875
head 15.2161 -7.96048 4.18915
rclavicle -3.81418e-015 7.63333e-014
rhumerus -56.4106 28.6286 -61.3278
rradius 46.6319
rwrist -7.32793
rhand -25.5879 -15.0194
rfingers 7.12502
rthumb 0.943766 -44.9971
lclavicle -3.81418e-015 7.63333e-014
lhumerus -1.40703 -33.1333 36.3521
lradius 98.0179
lwrist -10.2139
lhand -29.0008 18.7002
lfingers 7.12502
lthumb -2.35249 48.667
rfemur -61.2843 -15.7807 14.5416
rtibia 47.9623
rfoot 360.532 -28.4662
rtoes -12.1664
lfemur 1.19454 -14.8855 -5.7197
ltibia 25.9877
lfoot -26.9299 -4.09295
ltoes -47.476
293
root 7.21306 15.7937 3.52276 -253.222 -61.9813 -113.508
lowerback 24.6831 2.08642 -8.70083
upperback -0.112236 1.07928 7.55278
thorax -14.0133 1.32795 12.9598
lowerneck -10.5094 -8.34117 -9.54762
upperneck 33.9399 -17.5722 13.8453
head 16.0899 -7.92426 4.2279
rclavicle 2.37392e-014 -2.70347e-014
rhumerus -55.9204 27.5493 -60.9939
rradius 45.6804
rwrist -7.09086
rhand -25.5396 -15.613
rfingers 7.12502
rthumb 0.990403 -45.5904
lclavicle 2.37392e-014 -2.70347e-014
lhumerus 1.22347 -32.4661 36.3046
lradius 95.9024
lwrist -10.1277
lhand -29.6577 18.486
lfingers 7.12502
lthumb -2.9869 48.4448
rfemur -53.3096 -10.3519 6.80951
rtibia 28.1691
rfoot 334.823 -18.8355
rtoes 18.1612
lfemur 1.73817 -14.6387 -7.31482
ltibia 25.2516
lfoot -27.4194 -3.95255
ltoes -47.6307
294
root 7.21904 15.7967 3.54551 -251.559 -62.6953 -114.844
lowerback 24.13 2.08452 -9.75427
upperback -0.299469 0.816699 7.38996
thorax -13.8782 1.29153 13.4883
lowerneck -10.4223 -8.08112 -9.23734
upperneck 35.2015 -17.6599 13.59
head 16.6709 -7.99189 4.08572
rclavicle 3.83903e-015 4.77083e-015
rhumerus -56.9289 26.3601 -61.2177
rradius 44.8091
rwrist -6.91969
rhand -25.6783 -15.9351
rfingers 7.12502
rthumb 0.856441 -45.9131
lclavicle 3.83903e-015 4.77083e-015
lhumerus 3.81963 -33.0787 36.4496
lradius 93.5023
lwrist -10.3852
lhand -29.8433 18.217
lfingers 7.12502
lthumb -3.16609 48.1732
rfemur -45.0672 8.43758 -11.4468
rtibia 4.45824
rfoot 307.988 -3.14518
rtoes 40.0947
lfemur 1.638 -14.3537 -8.37018
ltibia 24.7807
lfoot -27.6242 -3.86474
ltoes -47.3526
295
root 7.21921 15.8166 3.55017 -250.09 -63.1806 -115.563
lowerback 23.1845 1.97594 -10.6252
upperback -0.613626 0.524206 7.32655
thorax -13.6706 1.23653 14.0397
lowerneck -10.3896 -7.84735 -8.93235
upperneck 35.7438 -17.4288 13.2377
head 16.8184 -7.90949 3.94287
rclavicle -4.34593e-014 3.49861e-014
rhumerus -58.2459 25.3303 -61.577
rradius 44.0637
rwrist -7.1806
rhand -25.6782 -15.9274
rfingers 7.12502
rthumb 0.856544 -45.9054
lclavicle -4.34593e-014 3.49861e-014
lhumerus 5.91515 -33.8218 36.862
lradius 90.9637
lwrist -11.373
lhand -29.2034 17.8009
lfingers 7.12502
lthumb -2.54818 47.7654
rfemur -108.573 -40.3582 114.844
rtibia -0.676096
rfoot 429.832 -3.87851
rtoes 38
lfemur 0.867946 -14.0443 -8.7405
ltibia 24.638
lfoot -27.6488 -3.84442
ltoes -47.2011
296
root 7.21042 15.8345 3.54368 -248.95 -63.6958 -115.694
lowerback 22.0696 1.7039 -11.141
upperback -1.04526 0.132231 7.21296
thorax -13.4545 1.11235 14.3533
lowerneck -10.4584 -7.77074 -8.90982
upperneck 36.2241 -17.1865 12.6368
head 16.9523 -7.86621 3.73213
rclavicle 9.0944e-015 1.74931e-014
rhumerus -59.7711 24.31 -61.9686
rradius 43.4418
rwrist -7.64803
rhand -25.2226 -15.6311
rfingers 7.12502
rthumb 1.29654 -45.6069
lclavicle 9.0944e-015 1.74931e-014
lhumerus 8.0342 -34.8032 37.4581
lradius 88.447
lwrist -12.2334
lhand -28.8238 17.9108
lfingers 7.12502
lthumb -2.1815 47.8794
rfemur -89.3304 -40.6874 79.7578
rtibia -1.75132
rfoot 395.796 2.1643
rtoes 32.0377
lfemur -0.367497 -13.9566 -8.96322
ltibia 24.7364
lfoot -27.6569 -3.87445
ltoes -47.1955
297
root 7.19381 15.8359 3.53397 -248.58 -63.9872 -115.085
lowerback 21.2148 1.26186 -10.8231
upperback -1.53061 -0.301223 7.07617
thorax -13.4089 0.915989 14.1573
lowerneck -10.6967 -7.7761 -9.18166
upperneck 36.4014 -16.8855 12.1419
head 17.0072 -7.80458 3.61546
rclavicle -3.77691e-014 4.77083e-015
rhumerus -61.244 23.3054 -62.3244
rradius 42.6779
rwrist -7.87058
rhand -24.6426 -15.0004
rfingers 7.12502
rthumb 1.85671 -44.9721
lclavicle -3.77691e-014 4.77083e-015
lhumerus 9.74588 -35.9574 38.2012
lradius 86.3384
lwrist -12.4944
lhand -28.9252 17.6448
lfingers 7.12502
lthumb -2.27942 47.6123
rfemur -89.1557 -40.0203 78.2358
rtibia -1.46427
rfoot 403.444 8.96487
rtoes 65.5785
lfemur -1.85274 -14.0938 -8.88473
ltibia 25.3288
lfoot -27.6552 -4.03384
ltoes -47.2323
298
root 7.17656 15.8201 3.52196 -249.21 -63.7463 -113.784
lowerback 20.8404 0.740995 -9.59014
upperback -1.88847 -0.657079 7.04251
thorax -13.5102 0.683149 13.5143
lowerneck -11.2923 -7.91872 -9.4456
upperneck 36.4154 -16.6191 11.5112
head 17.0501 -7.73697 3.40921
rclavicle 8.75646e-014 -4.6118e-014
rhumerus -62.3688 22.3675 -62.5452
rradius 41.707
rwrist -7.69681
rhand -24.089 -14.1345
rfingers 7.12502
rthumb 2.39145 -44.1009
lclavicle 8.75646e-014 -4.6118e-014
lhumerus 10.9561 -37.0467 38.9943
lradius 84.9795
lwrist -12.1719
lhand -28.9991 16.7925
lfingers 7.12502
lthumb -2.35084 46.7593
rfemur -77.9931 -36.5748 56.3203
rtibia 0.626462
rfoot 390.543 11.7236
rtoes 39.4325
lfemur -3.10062 -14.25 -8.14126
ltibia 26.1507
lfoot -27.5124 -4.47296
ltoes -46.9607
299
root 7.16386 15.7959 3.5103 -250.273 -63.2485 -112.415
lowerback 20.8247 0.243194 -7.9933
upperback -2.07244 -0.921479 7.06811
thorax -13.6493 0.450781 12.6947
lowerneck -11.99 -8.16019 -9.70701
upperneck 36.0546 -16.3995 10.9634
head 16.9383 -7.66409 3.21929
rclavicle -1.21259e-014 -4.13472e-014
rhumerus -63.1434 21.5226 -62.4731
rradius 40.9296
rwrist -7.49259
rhand -23.3159 -13.5618
rfingers 7.12502
rthumb 3.13803 -43.5185
lclavicle -1.21259e-014 -4.13472e-014
lhumerus 11.6324 -37.983 39.9517
lradius 84.3173
lwrist -11.6514
lhand -29.3788 15.9809
lfingers 7.12502
lthumb -2.71751 45.9433
rfemur -62.9749 -29.9058 36.3316
rtibia -1.05392
rfoot 365.076 9.81549
rtoes 1.63049
lfemur -3.8143 -14.4348 -7.20071
ltibia 26.7352
lfoot -27.3987 -4.67869
ltoes -46.8276
300
root 7.14301 15.8293 3.46682 -250.712 -62.8179 -112.811
lowerback 21.663 0.209817 -7.89571
upperback -1.9639 -0.973285 7.33132
thorax -13.972 0.442617 12.9903
lowerneck -12.3883 -8.29233 -10.0459
upperneck 35.2473 -15.9818 10.6059
head 16.5242 -7.51433 3.17953
rclavicle -6.37105e-014 0
rhumerus -63.5597 21.2946 -62.0269
rradius 40.4247
rwrist -7.32669
rhand -22.4831 -13.483
rfingers 7.12502
rthumb 3.94228 -43.4263
lclavicle -6.37105e-014 0
lhumerus 11.1348 -38.6348 41.6301
lradius 84.0195
lwrist -11.526
lhand -29.4656 15.4331
lfingers 7.12502
lthumb -2.80139 45.3945
rfemur -49.8422 -19.7337 18.7699
rtibia -2.90479
rfoot 353.852 -9.03998
rtoes 6.70574
lfemur -2.03864 -14.4148 -6.89862
ltibia 25.7276
lfoot -27.4962 -4.13759
ltoes -47.2363
301
root 7.12119 15.8612 3.43759 -250.122 -62.5775 -114.071
lowerback 22.0223 0.185943 -8.18331
upperback -1.71708 -1.0937 7.56887
thorax -13.8494 0.3915 13.477
lowerneck -12.8205 -8.24184 -10.1256
upperneck 34.0463 -15.3516 10.4636
head 15.9025 -7.21156 3.23046
rclavicle -3.20043e-014 -3.65764e-014
rhumerus -63.2304 21.3859 -61.3404
rradius 39.7857
rwrist -6.97397
rhand -22.2294 -13.6824
rfingers 7.12502
rthumb 4.18725 -43.621
lclavicle -3.20043e-014 -3.65764e-014
lhumerus 10.2662 -38.7364 43.4122
lradius 83.8158
lwrist -11.8202
lhand -29.2473 14.9352
lfingers 7.12502
lthumb -2.59058 44.8992
rfemur -41.6238 -7.31966 3.7712
rtibia -2.58769
rfoot 331.287 -13.3708
rtoes 31.9801
lfemur 0.0960089 -14.6544 -7.18385
ltibia 23.9138
lfoot -27.8624 -2.927
ltoes -47.6249
302
root 7.1136 15.8915 3.42532 -248.427 -62.5244 -116.062
lowerback 22.2105 0.205312 -8.45199
upperback -1.69935 -1.16018 7.49739
thorax -13.9041 0.382263 13.5795
lowerneck -13.1617 -7.99333 -9.85046
upperneck 32.9464 -14.7163 10.5849
head 15.3327 -6.851 3.33768
rclavicle 1.66979e-014 -6.36111e-015
rhumerus -62.8698 21.2725 -60.7534
rradius 39.0089
rwrist -6.58732
rhand -22.5831 -13.9522
rfingers 7.12502
rthumb 3.84566 -43.8973
lclavicle 1.66979e-014 -6.36111e-015
lhumerus 9.3895 -38.9659 44.764
lradius 83.8585
lwrist -12.1791
lhand -29.2177 15.0894
lfingers 7.12502
lthumb -2.56197 45.0537
rfemur -46.2601 7.21568 -8.61713
rtibia 6.02205
rfoot 313.911 -27.5243
rtoes 21.2269
lfemur 1.90689 -15.0037 -7.90499
ltibia 21.8763
lfoot -28.5271 -1.24328
ltoes -48.4772
303
root 7.1224 15.9271 3.42245 -246.294 -62.8215 -118.032
lowerback 22.111 0.19241 -8.58608
upperback -1.89695 -1.24461 7.02212
thorax -14.0385 0.361237 13.1314
lowerneck -13.227 -7.9334 -9.65421
upperneck 32.4267 -14.8591 11.3125
head 15.1877 -6.80847 3.56768
rclavicle 6.10269e-014 -4.29375e-014
rhumerus -62.6119 20.4659 -60.2463
rradius 38.2711
rwrist -6.57346
rhand -23.0136 -13.7195
rfingers 7.12502
rthumb 3.42994 -43.6717
lclavicle 6.10269e-014 -4.29375e-014
lhumerus 9.12113 -39.5868 45.3632
lradius 83.9034
lwrist -12.3968
lhand -29.0449 15.4643
lfingers 7.12502
lthumb -2.39512 45.4306
rfemur -49.2372 -2.54335 1.38464
rtibia 16.1255
rfoot 328.148 -24.5224
rtoes 12.8079
lfemur 2.85251 -15.5121 -9.00372
ltibia 20.2623
lfoot -29.4539 0.560445
ltoes -49.8525
